<svg width="1920" height="1180" viewBox="0 0 1920 1180" fill="none" xmlns="http://www.w3.org/2000/svg">
<mask id="mask0_31_587" style="mask-type:luminance" maskUnits="userSpaceOnUse" x="0" y="0" width="1920" height="1180">
<path d="M1920 0H0V1179.49H1920V0Z" fill="white"/>
</mask>
<g mask="url(#mask0_31_587)">
<path d="M2245.9 975.199H2245.93V1219.62H-325.938V965.852C-325.938 890.217 -259.394 828.899 -177.329 828.899C-164.242 828.899 -151.538 830.476 -139.441 833.41C-117.41 775.158 -57.3135 733.375 13.3905 733.375C69.5665 733.375 119.039 759.722 148.062 799.765C158.798 793.293 171.63 789.504 185.438 789.504C213.279 789.504 237.199 804.808 247.887 826.79C263.327 819.861 280.622 815.998 298.958 815.998C360.943 815.998 411.63 860.42 415.695 916.593C419.79 915.959 423.983 915.606 428.271 915.606C462.543 915.606 491.422 936.866 500.238 965.852H503.039V970.26C516.495 964.997 531.294 962.092 546.831 962.092C563.646 962.092 579.599 965.483 593.903 971.616C607.535 951.698 631.583 938.488 658.958 938.488C699.902 938.488 733.375 967.975 735.743 1005.16C742.126 1002.64 749.151 1001.27 756.511 1001.27C785.871 1001.27 809.662 1023.23 809.662 1050.3C809.662 1052.23 809.567 1054.14 809.295 1056.01C827.854 1044.69 850.126 1038.11 874.031 1038.11C903.167 1038.11 929.791 1047.89 950.318 1064.06C953.518 1018.91 991.694 981.2 1042.16 976.57C1056.37 975.273 1070.16 976.732 1082.97 980.448C1082.59 978.325 1082.16 976.216 1081.92 974.034C1075.5 914.736 1122.48 861.865 1186.85 855.968C1238.78 851.191 1286.13 878.496 1305.85 920.383C1314.22 916.52 1323.45 913.895 1333.34 912.996C1342.35 912.17 1351.15 912.79 1359.49 914.618C1374.69 888.787 1404.37 871.257 1438.51 871.257C1466.59 871.257 1491.69 883.14 1508.16 901.717C1521.05 842.743 1577.57 798.32 1645.41 798.32C1673.89 798.32 1700.43 806.149 1722.53 819.654C1722.22 817.428 1722.09 815.158 1722.09 812.843C1722.09 780.599 1750.43 754.429 1785.44 754.429C1794.19 754.429 1802.56 756.051 1810.17 759.058C1812.99 714.769 1852.88 679.635 1901.65 679.635C1934.27 679.635 1962.93 695.366 1979.17 719.105C1996.21 711.807 2015.21 707.752 2035.25 707.752C2109.07 707.752 2168.89 762.878 2168.89 830.891C2168.89 847.359 2165.37 863.061 2158.99 877.377C2208.43 885.339 2245.93 925.087 2245.93 972.915C2245.93 973.681 2245.92 974.432 2245.9 975.199Z" fill="#FFF5E3"/>
</g>
</svg>
