<svg width="1920" height="1180" viewBox="0 0 1920 1180" fill="none" xmlns="http://www.w3.org/2000/svg">
<mask id="mask0_31_477" style="mask-type:luminance" maskUnits="userSpaceOnUse" x="0" y="0" width="1920" height="1180">
<path d="M1920 0H0V1179.49H1920V0Z" fill="white"/>
</mask>
<g mask="url(#mask0_31_477)">
<path d="M2172.83 602.204C2161.4 602.204 2150.3 603.583 2139.73 606.135C2120.48 555.24 2067.97 518.73 2006.2 518.73C1957.11 518.73 1913.89 541.76 1888.52 576.746C1879.14 571.086 1867.93 567.773 1855.87 567.773C1831.54 567.773 1810.64 581.15 1801.3 600.352C1787.81 594.302 1772.69 590.927 1756.68 590.927C1704.42 590.927 1661.36 627.075 1655.21 673.712C1630.14 642.388 1589.85 622.071 1544.37 622.071C1484.23 622.071 1433.12 657.61 1414.38 707.155C1404.09 704.671 1393.29 703.329 1382.16 703.329C1313.43 703.329 1257.55 753.883 1255.83 816.832C1241.41 810.385 1225.22 806.764 1208.12 806.764C1191.71 806.764 1176.14 810.086 1162.19 816.066C1148.88 796.632 1125.41 783.743 1098.7 783.743C1058.76 783.743 1026.09 812.512 1023.79 848.787C1017.55 846.33 1010.7 845.001 1003.53 845.001C987.452 845.001 973.09 851.744 963.576 862.325C954.144 857.302 943.442 853.986 931.896 852.926C923.628 852.167 915.536 852.625 907.813 854.119C907.519 806.535 868.274 765.87 815.744 761.05C801.54 759.747 787.735 761.206 774.93 764.926C775.301 762.793 775.746 760.684 775.981 758.507C782.389 699.205 735.415 646.343 671.059 640.437C619.117 635.671 571.765 662.971 552.048 704.853C543.669 700.991 534.442 698.375 524.563 697.468C490.987 694.387 460.304 711.184 446.068 737.435C435.01 729.914 421.736 724.893 407.069 723.547C382.692 721.309 359.802 729.531 343.639 744.25C320.869 701.425 273.122 671.931 217.848 671.931C189.368 671.931 162.824 679.76 140.728 693.265C141.032 691.039 141.16 688.768 141.16 686.453C141.16 654.209 112.824 628.039 77.8163 628.039C69.0643 628.039 60.6963 629.661 53.0803 632.669C50.2643 588.379 10.3779 553.245 -38.3917 553.245C-71.0157 553.245 -99.6717 568.977 -115.912 592.714C-132.952 585.416 -151.96 581.361 -171.992 581.361C-245.816 581.361 -305.64 636.487 -305.64 704.499C-305.64 720.968 -302.12 736.67 -295.736 750.986C-345.176 758.947 -382.68 798.696 -382.68 846.524C-382.68 847.291 -382.664 848.043 -382.648 848.81H-382.68V915.964V1103.02V1140.61H1661.9H2302.68V915.962V721.857C2302.68 655.775 2244.54 602.204 2172.83 602.204Z" fill="#F9D6CF"/>
</g>
</svg>
