<svg width="376" height="200" viewBox="0 0 376 200" fill="none" xmlns="http://www.w3.org/2000/svg">
<path d="M142.973 129.99C142.973 107.899 119.974 92.3018 91.2549 92.3018C62.5361 92.3018 40.4734 107.899 40.4734 129.99C40.4734 152.082 62.5361 157.302 91.2549 157.302C119.974 157.302 142.973 152.082 142.973 129.99ZM151.255 129.99C151.255 137.003 149.375 143.17 145.606 148.278C141.899 153.304 136.772 156.756 131.146 159.141C120.157 163.798 105.769 164.99 91.2549 164.99C76.7405 164.99 62.3523 163.798 51.3633 159.141C45.7382 156.756 40.6108 153.304 36.9033 148.278C33.1345 143.17 31.2549 137.003 31.2549 129.99C31.2549 102.195 59.5231 79.4902 91.2549 79.4902C122.987 79.4902 151.255 102.195 151.255 129.99Z" fill="#190933"/>
<path d="M93.4697 78.7402C93.4697 77.0834 92.1266 75.7402 90.4697 75.7402C88.8129 75.7402 87.4697 77.0834 87.4697 78.7402C87.4697 80.3971 88.8129 81.7402 90.4697 81.7402V89.7402C84.3946 89.7402 79.4697 84.8154 79.4697 78.7402C79.4697 72.6651 84.3946 67.7402 90.4697 67.7402C96.5449 67.7402 101.47 72.6651 101.47 78.7402C101.47 84.8154 96.5449 89.7402 90.4697 89.7402V81.7402C92.1266 81.7402 93.4697 80.3971 93.4697 78.7402Z" fill="#190933"/>
<path d="M81.9736 150.802C81.9736 153.011 80.1828 154.802 77.9736 154.802C75.7645 154.802 73.9736 152.511 73.9736 150.302C73.9736 148.093 75.2645 146.802 77.4736 146.802C79.6828 146.802 81.9736 148.593 81.9736 150.802Z" fill="#190933"/>
<path d="M95.9736 151.302C95.9736 153.511 94.6828 155.802 92.4736 155.802C90.2645 155.802 87.9736 154.511 87.9736 152.302C87.9736 150.093 89.7645 147.302 91.9736 147.302C94.1828 147.302 95.9736 149.093 95.9736 151.302Z" fill="#190933"/>
<path d="M109.974 150.802C109.974 153.011 108.683 154.802 106.474 154.802C104.264 154.802 101.974 153.011 101.974 150.802C101.974 148.593 104.264 146.802 106.474 146.802C108.683 146.802 109.974 148.593 109.974 150.802Z" fill="#190933"/>
<path d="M137.473 36.1576C141.36 35.6422 145.926 36.0189 150.097 38.1549L150.107 38.1605L150.49 38.3625L150.503 38.3681L150.551 38.3955L150.561 38.4002L150.571 38.4059L150.612 38.4296L150.982 38.6435C154.69 40.8361 158.485 44.6991 159.616 50.1068L159.72 50.6528L159.72 50.6537L159.739 50.7599L159.741 50.7716L159.742 50.7842L159.758 50.8894L159.759 50.8943C160.38 55.2941 159.57 59.4191 158.477 62.7599L158.47 62.7834L158.463 62.807L158.454 62.8286C156.853 67.6058 154.413 71.8508 151.886 75.547L151.227 76.5106L151.221 76.5048C148.759 80.0521 146.172 83.4502 143.62 86.7116L143.607 86.7284L143.593 86.7443L143.583 86.7572C141.079 89.9417 138.5 93.1248 135.813 96.258L131.475 101.318L130.903 101.984L130.17 101.506L124.554 97.8484C123.082 96.8892 121.656 96.0568 120.244 95.3691L120.243 95.3691L118.681 94.6069L117.573 94.1908C115.815 93.5292 114.175 92.9992 112.59 92.6265L104.849 90.8055L103.799 90.5593L104.128 89.5296L106.49 82.1331C108.074 77.1758 109.843 72.3225 111.649 67.584L111.659 67.5594L111.669 67.5348L111.675 67.52C113.4 63.0567 115.256 58.3589 117.464 53.7358L117.469 53.722L117.479 53.7023C118.529 51.5265 119.747 49.3363 121.179 47.207L121.211 47.1497L121.242 47.112C122.954 44.5913 125.354 41.732 128.753 39.5695L128.775 39.5544L128.795 39.5414L128.815 39.5293L128.837 39.5152C130.621 38.4013 133.621 36.6633 137.422 36.1634L137.422 36.1644C137.43 36.1633 137.437 36.1618 137.443 36.1611C137.45 36.1602 137.455 36.1594 137.46 36.1588L137.473 36.1586L137.473 36.1576ZM145.856 46.4808C143.747 45.3378 141.166 45.0257 138.692 45.3592L138.685 45.3603C137.027 45.5729 135.479 46.3713 133.929 47.3393L133.578 47.5714L133.251 47.8031C131.632 48.988 130.291 50.5502 129.135 52.2569C127.981 53.9688 126.972 55.7791 126.071 57.6446L125.692 58.4428L125.693 58.4437C123.811 62.4724 122.172 66.6124 120.56 70.7849L120.561 70.7859L119.896 72.5377C118.482 76.2928 117.126 80.0621 115.888 83.8628C117.374 84.2555 118.83 84.7281 120.258 85.247L121.011 85.5261L121.019 85.5289L121.028 85.5327L121.03 85.5336C121.031 85.534 121.033 85.5347 121.035 85.5355C121.04 85.5372 121.046 85.5398 121.054 85.5429C121.07 85.5494 121.094 85.5588 121.125 85.5709C121.186 85.5955 121.276 85.6314 121.383 85.6745C121.598 85.7608 121.89 85.8791 122.197 86.0043C122.641 86.185 123.154 86.3965 123.501 86.5505L123.784 86.6821L123.792 86.6858L123.799 86.6896L124.504 87.0585L125.111 87.3608C126.483 88.0582 127.811 88.8298 129.099 89.6438C130.841 87.5964 132.547 85.5194 134.227 83.419L136.08 81.0806C138.82 77.579 141.502 74.0511 143.988 70.4052L143.989 70.4042C146.098 67.3192 147.946 64.0803 149.189 60.6413L149.432 59.9404C150.264 57.3936 150.705 54.7501 150.346 52.2005C149.954 49.9724 148.347 48.0177 146.269 46.7252L146.269 46.7242L145.856 46.4808ZM137.513 36.1529C137.508 36.1534 137.499 36.1551 137.489 36.1563C137.496 36.1556 137.501 36.1544 137.506 36.1541C137.51 36.1536 137.515 36.1531 137.517 36.1529L137.513 36.1529Z" fill="#190933" stroke="#190933" stroke-width="2"/>
<path d="M30.1255 37.4937C34.4555 35.1813 39.2035 34.7105 43.2397 35.1665C43.2445 35.1669 43.2499 35.166 43.2554 35.1665L43.3032 35.1714L43.311 35.1724C43.3143 35.1727 43.3179 35.1734 43.3257 35.1743C43.3308 35.1749 43.3381 35.1763 43.3462 35.1772L43.3472 35.1763C47.3678 35.6359 50.5451 37.4113 52.3784 38.5122L52.4028 38.5259L52.4429 38.5493L52.4829 38.5747L52.5005 38.5864C56.0629 40.7721 58.5909 43.6788 60.3872 46.2183L60.4526 46.2944L60.5142 46.3989C62.005 48.5374 63.2766 50.7363 64.3774 52.9165L64.397 52.9546L64.4116 52.9868C66.7128 57.5985 68.6613 62.2835 70.4624 66.7085L70.4829 66.7563L70.4917 66.7808C72.3854 71.4948 74.2493 76.335 75.9292 81.2876L79.1196 90.6938L69.3149 93.1763C67.7915 93.5619 66.204 94.1034 64.4829 94.7847L63.4312 95.2007L61.9204 95.9702C60.5674 96.6582 59.1931 97.4919 57.7622 98.4595L50.7622 103.192L45.1704 96.897C42.4181 93.7987 39.7748 90.6508 37.2104 87.5044L37.1909 87.4819L37.1646 87.4497C34.7812 84.5114 32.3585 81.4501 30.0229 78.2593L30.0093 78.2739L28.6616 76.3745C26.0364 72.6765 23.4644 68.3878 21.7358 63.5181L21.7192 63.4731L21.7134 63.4536L21.4956 62.8042C20.4212 59.5108 19.639 55.4849 20.1714 51.1587L20.1724 51.1479L20.186 51.0425L20.189 51.0181L20.1929 50.9946L20.2085 50.8882L20.2095 50.8862C21.1771 44.6032 25.5063 40.1824 29.5815 37.7964L29.6147 37.7759L29.6333 37.7651L29.6528 37.7544L29.7017 37.7271L29.7134 37.7202L29.7261 37.7134L30.105 37.5044L30.1157 37.4995L30.1255 37.4937ZM57.5532 96.1997C57.2508 96.3954 56.947 96.596 56.6421 96.8022C56.947 96.596 57.2508 96.3954 57.5532 96.1997ZM53.9751 89.7544C53.9337 89.7804 53.8924 89.8064 53.8511 89.8325C53.8924 89.8064 53.9337 89.7804 53.9751 89.7544ZM54.9868 89.1343C54.933 89.1664 54.8793 89.1986 54.8257 89.231C54.8793 89.1986 54.933 89.1664 54.9868 89.1343ZM56.0161 88.5376C55.9767 88.5597 55.9373 88.5817 55.8979 88.604C55.9373 88.5817 55.9767 88.5597 56.0161 88.5376ZM42.0063 46.3794C39.6936 46.1073 37.3516 46.4457 35.4927 47.4878L35.0991 47.73C33.2169 48.9516 31.8804 50.7075 31.5854 52.5737C31.3062 54.9111 31.7491 57.3692 32.5894 59.8003L32.8423 60.4907C34.1063 63.8012 35.9617 66.9311 38.0962 69.938L38.0981 69.9399C40.6309 73.5183 43.3618 76.9825 46.1606 80.4331L48.0503 82.7339C49.5771 84.5764 51.1234 86.3987 52.6958 88.1968C53.9547 87.3966 55.258 86.6381 56.6099 85.9507L56.645 85.9321L60.1099 84.3403L60.1597 84.3198C61.5154 83.7831 62.9041 83.2799 64.3267 82.8403C63.1228 79.4147 61.8243 76.0115 60.4761 72.6157L59.7866 70.8892L58.5151 67.7915C57.234 64.7075 55.9129 61.6648 54.4585 58.6909L54.0649 57.895C53.1508 56.0862 52.1355 54.3408 50.9868 52.6997C49.7637 50.9599 48.3744 49.4343 46.7261 48.3472L46.3931 48.1353C44.8574 47.2132 43.4526 46.5405 42.019 46.3813L42.0063 46.3794ZM23.2095 61.5913C23.3353 62.0032 23.467 62.4055 23.603 62.7974C23.467 62.4055 23.3353 62.0032 23.2095 61.5913ZM31.231 61.8569H31.2319H31.231ZM23.0005 60.8774C23.0385 61.0133 23.0782 61.1478 23.1177 61.2817C23.0782 61.1478 23.0385 61.0133 23.0005 60.8774ZM22.8384 60.2729C22.8758 60.4183 22.9154 60.5623 22.9546 60.7056C22.9154 60.5623 22.8758 60.4183 22.8384 60.2729ZM22.6733 59.603C22.7041 59.7351 22.7377 59.866 22.77 59.9966C22.7377 59.866 22.7041 59.7351 22.6733 59.603ZM22.5317 58.9595C22.5569 59.0806 22.5842 59.2009 22.6108 59.3208C22.5842 59.2009 22.557 59.0806 22.5317 58.9595ZM22.397 58.2642C22.4167 58.3731 22.4385 58.4813 22.4595 58.5894C22.4385 58.4813 22.4167 58.3731 22.397 58.2642ZM22.2778 57.5493C22.2955 57.6651 22.3154 57.7802 22.3345 57.895C22.3154 57.7802 22.2955 57.6651 22.2778 57.5493ZM22.1802 56.8462C22.1957 56.9714 22.2137 57.096 22.231 57.2202C22.2137 57.096 22.1957 56.9714 22.1802 56.8462ZM22.1011 56.1157C22.1128 56.2419 22.1265 56.3674 22.1401 56.4927C22.1265 56.3674 22.1128 56.2419 22.1011 56.1157ZM22.0464 55.4077C22.0525 55.505 22.0606 55.6019 22.0679 55.6987C22.0606 55.6019 22.0525 55.505 22.0464 55.4077ZM22.0112 54.6665C22.0146 54.7781 22.0199 54.8894 22.0249 55.0005C22.0199 54.8894 22.0146 54.7781 22.0112 54.6665ZM29.5181 53.3296C29.5019 53.6762 29.4991 54.0231 29.5073 54.3696C29.4991 54.0231 29.5019 53.6762 29.5181 53.3296ZM22.0015 53.9478C22.0013 54.0365 22.0025 54.125 22.0034 54.2134C22.0025 54.125 22.0013 54.0365 22.0015 53.9478ZM62.186 53.0278C62.057 52.7815 61.9251 52.5356 61.7915 52.2896C61.9251 52.5356 62.057 52.7815 62.186 53.0278ZM53.5073 52.8716H53.5083H53.5073ZM22.0171 53.1646C22.0134 53.2617 22.0107 53.3587 22.0083 53.4556C22.0107 53.3587 22.0134 53.2617 22.0171 53.1646ZM22.061 52.3911C22.0533 52.4942 22.0467 52.597 22.0405 52.6997C22.0467 52.597 22.0533 52.4942 22.061 52.3911ZM29.8198 51.3325C29.7739 51.4887 29.7335 51.6467 29.6978 51.8062C29.7335 51.6467 29.7739 51.4886 29.8198 51.3325ZM61.6138 51.9663C61.5351 51.8237 61.4558 51.681 61.3755 51.5386C61.4557 51.6811 61.5351 51.8237 61.6138 51.9663ZM61.1841 51.2017C61.1137 51.0789 61.0428 50.9561 60.9712 50.8335C61.0428 50.9561 61.1137 51.0788 61.1841 51.2017ZM31.1353 48.7261C30.746 49.2549 30.4139 49.8205 30.1538 50.4165C30.2838 50.1186 30.432 49.8283 30.5962 49.5464C30.7606 49.2642 30.9414 48.9907 31.1362 48.7261H31.1353ZM60.7251 50.4165C60.6601 50.3075 60.5938 50.1991 60.5278 50.0903C60.5938 50.1991 60.6601 50.3075 60.7251 50.4165ZM60.2788 49.6821C60.2012 49.5569 60.1225 49.4321 60.0435 49.3071C60.1224 49.4321 60.2012 49.5569 60.2788 49.6821ZM23.3315 47.3511V47.3521V47.3511ZM37.7446 44.562C37.4175 44.6292 37.0934 44.7088 36.7739 44.8022C37.0934 44.7087 37.4175 44.6292 37.7446 44.562ZM43.6235 44.6655H43.6245H43.6235ZM41.7095 44.3403C41.7359 44.3425 41.7622 44.3449 41.7886 44.3472C41.7622 44.3449 41.7359 44.3425 41.7095 44.3403ZM30.688 39.4663L30.6392 39.4937L30.5913 39.522C29.7738 40.0006 28.9522 40.5646 28.1587 41.2114C28.0454 41.3038 27.9328 41.398 27.8208 41.4937C27.5966 41.6852 27.3749 41.8834 27.1567 42.0884C26.8296 42.3957 26.51 42.7181 26.2007 43.0552C25.8911 43.3926 25.5919 43.745 25.3052 44.1118L25.5962 43.7505C27.0698 41.9664 28.8397 40.5486 30.5913 39.5229L30.6392 39.4946L30.688 39.4673L31.0679 39.2583L30.688 39.4663ZM51.4165 40.2681V40.2671V40.2681ZM48.4399 38.6792C49.147 38.9979 49.7866 39.3352 50.355 39.6528C50.0546 39.485 49.736 39.3086 49.396 39.1362C49.0925 38.9823 48.7735 38.8286 48.4399 38.6782V38.6792ZM46.938 38.0718C47.2251 38.1748 47.5041 38.2829 47.7749 38.394C47.5041 38.2829 47.2251 38.1748 46.938 38.0718ZM45.1899 37.5415C45.5596 37.6333 45.9199 37.7337 46.269 37.8442C45.9199 37.7336 45.5596 37.6333 45.1899 37.5415ZM42.3599 37.0884C42.5984 37.1084 42.8348 37.1317 43.0688 37.1587C42.8348 37.1317 42.5984 37.1084 42.3599 37.0884ZM62.5923 53.8179C62.4593 53.5546 62.324 53.2911 62.186 53.0278C62.324 53.2911 62.4593 53.5546 62.5923 53.8179Z" fill="#190933"/>
<path fill-rule="evenodd" clip-rule="evenodd" d="M90.7338 102.513C111.01 102.513 124.718 105.381 127.447 119.598C130.486 135.436 108.749 144.513 90.7338 144.513C72.7182 144.513 50.9808 135.436 54.0199 119.598C56.7482 105.381 70.4577 102.513 90.7338 102.513ZM102.75 126.802C102.081 126.802 101.429 126.979 100.883 127.308C100.338 127.637 99.9266 128.102 99.7065 128.639C99.5446 129.018 97.9668 132.342 91.9672 132.342C85.9674 132.342 84.38 129.017 84.2279 128.639C83.9419 127.971 83.3619 127.424 82.6098 127.113C81.8575 126.802 80.992 126.752 80.1967 126.973C79.4013 127.193 78.7379 127.668 78.3471 128.296C77.9563 128.924 77.8684 129.656 78.102 130.338C78.2151 130.642 81.0463 137.802 91.9672 137.802C102.889 137.802 105.727 130.642 105.833 130.338C105.98 129.929 106.012 129.496 105.927 129.075C105.842 128.654 105.641 128.255 105.341 127.911C105.042 127.567 104.651 127.287 104.201 127.095C103.751 126.902 103.254 126.802 102.75 126.802Z" fill="#190933"/>
<path d="M212.523 75.5441C216.42 83.9732 217.414 92.7999 215.505 102.024C214.869 105.205 213.835 107.829 212.404 109.897C210.178 112.68 207.911 113.435 205.605 112.163C203.379 110.97 202.067 108.823 201.669 105.722C201.112 100.394 201.152 97.0542 201.788 95.7024C200.675 98.088 198.806 100.672 196.182 103.456C191.729 108.306 187.355 111.288 183.061 112.402C178.767 113.515 174.592 113.038 170.537 110.97C166.561 108.982 163.738 105.921 162.068 101.786C160.637 98.2073 160.358 94.6289 161.233 91.0505C162.028 87.7106 163.738 84.7684 166.362 82.2238C168.986 79.5996 172.088 77.5718 175.666 76.1405C180.119 74.3115 187.157 73.1187 196.778 72.5621C195.029 72.403 191.967 72.5223 187.594 72.9199C183.697 73.397 180.676 73.3573 178.529 72.8007C174.95 72.0055 172.565 70.2163 171.372 67.4331C170.815 66.2403 170.616 65.0872 170.775 63.9739C171.014 62.4631 171.849 61.1907 173.28 60.157C174.712 59.1232 176.302 58.4473 178.052 58.1292C179.403 57.8907 180.874 57.8111 182.465 57.8907C184.612 58.0497 187.514 58.6461 191.172 59.6799C201.987 62.7811 209.104 68.0692 212.523 75.5441ZM188.906 94.0325C189.304 92.4421 189.224 90.971 188.667 89.6191C188.111 88.3468 187.355 87.5118 186.401 87.1142C185.447 86.6371 184.453 86.5974 183.419 86.995C182.465 87.313 181.55 87.8299 180.676 88.5456C179.801 89.1818 179.125 90.0565 178.648 91.1698C178.171 92.283 178.012 93.3566 178.171 94.3903C178.33 95.9807 179.006 97.253 180.199 98.2073C181.471 99.1615 182.862 99.4796 184.373 99.1615C185.487 98.923 186.441 98.3266 187.236 97.3723C188.031 96.4181 188.588 95.3048 188.906 94.0325Z" fill="#190933"/>
<path d="M266.102 72.3962C268.965 80.9844 269.362 89.6123 267.295 98.28C265.625 104.88 262.842 108.538 258.945 109.254C257.434 109.572 255.923 109.373 254.412 108.657C252.902 107.862 251.629 106.789 250.596 105.437C247.335 101.302 245.586 94.8208 245.347 85.9941C245.347 85.9146 245.347 85.676 245.347 85.2784C245.506 81.7796 245.188 80.0301 244.393 80.0301C244.154 80.1096 243.876 80.2687 243.558 80.5072C243.24 80.8253 243.001 81.3422 242.842 82.0579C242.365 84.1254 242.166 88.1014 242.246 93.9859C242.246 99.0751 241.65 102.972 240.457 105.675C239.662 107.663 238.469 109.293 236.878 110.566C235.288 111.918 233.539 112.713 231.63 112.951C229.801 113.11 228.012 112.713 226.262 111.759C224.513 110.804 223.042 109.532 221.849 107.942C220.1 105.556 218.788 102.017 217.913 97.3257C215.845 86.9881 215.965 77.0879 218.271 67.625C218.589 66.4322 218.907 65.2792 219.225 64.1659C220.418 60.508 222.048 58.2417 224.115 57.3669C225.308 56.8898 226.581 56.9296 227.932 57.4862C229.364 57.9633 230.517 58.7585 231.391 59.8718C232.902 61.8598 233.539 64.5237 233.3 67.8636C236.163 63.649 239.582 60.7068 243.558 59.0369C248.806 56.8103 253.418 57.0886 257.394 59.8718C261.37 62.655 264.273 66.8298 266.102 72.3962Z" fill="#190933"/>
<path d="M291.272 71.5955C293.419 76.5257 294.413 82.8476 294.254 90.561C294.016 100.342 291.59 107.061 286.978 110.719C285.308 111.912 283.479 112.628 281.491 112.866C279.583 113.184 277.754 112.866 276.005 111.912C272.744 109.924 270.677 105.869 269.802 99.7455C269.245 95.3719 269.325 89.9248 270.041 83.4042C270.359 80.462 270.637 78.1559 270.876 76.486C271.194 74.816 271.79 72.7088 272.665 70.1641C273.539 67.54 274.692 65.5917 276.124 64.3194C278.43 62.0133 280.935 61.5362 283.638 62.8881C286.74 64.3989 289.284 67.3014 291.272 71.5955ZM281.253 56.8048C277.674 57.8385 274.613 57.2819 272.068 55.1349C269.603 52.9083 268.45 50.1251 268.609 46.7853C268.689 44.7973 269.325 42.9683 270.518 41.2984C271.949 39.0718 274.017 37.5212 276.72 36.6465C279.503 35.6922 282.088 35.7717 284.473 36.885C286.939 37.9983 288.489 40.0261 289.125 42.9683C289.761 45.831 289.324 48.654 287.813 51.4372C286.302 54.1409 284.116 55.9301 281.253 56.8048Z" fill="#190933"/>
<path d="M211.231 121.023C216.287 126.335 217.791 134.111 215.743 144.351C215.487 145.695 215.231 146.911 214.975 147.999C214.783 149.023 214.431 150.335 213.919 151.935C213.471 153.535 212.927 154.911 212.287 156.063C211.711 157.215 211.007 158.367 210.175 159.519C209.343 160.671 208.351 161.535 207.199 162.111C206.111 162.687 204.895 162.943 203.551 162.879C201.311 162.815 199.455 161.759 197.983 159.711C196.127 157.087 195.743 153.407 196.831 148.671C197.023 147.903 197.343 146.815 197.791 145.407C198.239 143.935 198.495 142.943 198.559 142.431C198.751 141.791 198.943 140.799 199.135 139.455C199.327 138.111 199.487 137.119 199.615 136.479C199.103 138.655 198.623 140.415 198.175 141.759C197.727 143.039 197.023 144.543 196.063 146.271C195.103 147.935 193.983 149.279 192.703 150.303C191.551 151.327 190.463 151.807 189.439 151.743C187.519 151.743 185.791 150.111 184.255 146.847L179.839 137.247C181.311 141.215 182.399 145.247 183.103 149.343C183.679 152.607 183.199 155.647 181.663 158.463C180.127 161.279 177.823 163.039 174.751 163.743C171.359 164.511 168.511 163.647 166.207 161.151C163.967 158.655 162.527 155.647 161.887 152.127C160.351 143.487 160.351 135.359 161.887 127.743C162.207 126.143 162.591 124.639 163.039 123.231C163.551 121.823 164.159 120.831 164.863 120.255C166.335 119.039 167.903 119.199 169.567 120.735C169.887 121.055 170.271 121.503 170.719 122.079C171.231 122.591 171.583 122.943 171.775 123.135C171.839 123.263 171.903 123.327 171.967 123.327C172.031 123.327 172.127 123.295 172.255 123.231C172.383 123.103 172.607 122.911 172.927 122.655C173.759 121.951 174.399 121.439 174.847 121.119C175.295 120.799 175.903 120.351 176.671 119.775C177.503 119.199 178.239 118.783 178.879 118.527C179.519 118.271 180.223 118.015 180.991 117.759C181.759 117.503 182.527 117.407 183.295 117.471C184.127 117.471 184.927 117.631 185.695 117.951C187.359 118.527 188.735 119.679 189.823 121.407C190.655 122.687 191.327 124.383 191.839 126.495C191.711 126.047 191.967 125.247 192.607 124.095C193.311 122.943 193.919 122.015 194.431 121.311C195.775 119.647 197.407 118.463 199.327 117.759C201.439 117.055 203.551 117.023 205.663 117.663C207.839 118.303 209.695 119.423 211.231 121.023Z" fill="#190933"/>
<path d="M254.08 129.398C255.104 133.622 255.136 137.846 254.176 142.07C253.28 146.294 251.68 150.23 249.376 153.878C247.584 156.63 245.472 158.87 243.04 160.598C240.608 162.326 237.92 163.414 234.976 163.862C232.032 164.31 229.024 163.766 225.952 162.23C223.456 161.014 221.44 158.806 219.904 155.606C217.856 151.51 216.768 147.286 216.64 142.934C216.512 138.582 217.536 134.39 219.712 130.358C219.904 130.038 220.128 129.718 220.384 129.398C222.176 126.774 224.736 124.598 228.064 122.87C231.392 121.142 234.752 120.086 238.144 119.702C241.6 119.318 244.832 119.926 247.84 121.526C250.912 123.126 252.992 125.75 254.08 129.398ZM240.64 143.126C241.216 141.526 241.312 140.022 240.928 138.614C240.48 137.27 239.584 136.214 238.24 135.446C236.896 134.614 235.616 134.55 234.4 135.254C233.184 135.894 232.384 137.078 232 138.806C231.616 140.47 231.68 141.878 232.192 143.03C232.832 145.142 233.856 146.422 235.264 146.87C236.416 147.19 237.536 146.934 238.624 146.102C239.52 145.398 240.192 144.406 240.64 143.126Z" fill="#190933"/>
<path d="M288.958 145.289C290.686 146.377 291.71 147.753 292.03 149.417C292.35 151.081 292.126 152.713 291.358 154.313C290.654 155.849 289.63 157.289 288.286 158.633C285.982 160.873 283.198 162.441 279.934 163.337C276.734 164.169 273.534 164.233 270.334 163.529C266.814 162.825 263.838 161.385 261.406 159.209C259.038 157.033 257.342 154.537 256.318 151.721C255.294 148.905 254.814 145.897 254.878 142.697C255.006 139.433 255.646 136.361 256.798 133.481C258.014 130.601 259.806 128.009 262.174 125.705C264.606 123.401 267.422 121.801 270.622 120.905C271.07 120.841 271.486 120.745 271.87 120.617C276.222 119.721 280.414 120.361 284.446 122.537C288.478 124.649 290.91 127.849 291.742 132.137C292.19 134.505 291.742 136.553 290.398 138.281C289.054 140.009 287.198 140.841 284.83 140.777C283.55 140.777 281.854 140.361 279.742 139.529C277.694 138.697 276.254 138.185 275.422 137.993C271.902 137.353 268.414 137.833 264.958 139.433C263.486 140.073 262.558 140.905 262.174 141.929C261.598 143.209 261.79 144.169 262.75 144.809C263.774 145.385 264.99 145.673 266.398 145.673C270.878 145.673 275.358 145.353 279.838 144.713C281.246 144.329 282.814 144.169 284.542 144.233C286.334 144.233 287.806 144.585 288.958 145.289Z" fill="#190933"/>
<path d="M323.787 118.094C325.963 118.286 327.819 119.054 329.355 120.398C330.891 121.742 331.979 123.374 332.619 125.294C333.259 127.214 333.771 129.358 334.155 131.726C334.539 134.03 334.667 136.238 334.539 138.35C334.475 140.462 334.443 142.382 334.443 144.11C334.059 151.662 331.819 156.558 327.723 158.798C326.187 159.63 324.587 159.502 322.923 158.414C321.643 157.582 320.587 156.27 319.755 154.478C319.307 153.518 318.699 151.886 317.931 149.582C317.227 147.278 316.587 145.55 316.011 144.398C315.435 143.374 314.827 142.926 314.187 143.054C313.675 143.118 313.259 143.342 312.939 143.726C312.683 144.046 312.523 144.558 312.459 145.262C312.459 145.902 312.459 146.446 312.459 146.894C312.459 147.278 312.491 147.886 312.555 148.718C312.683 149.486 312.747 149.902 312.747 149.966C313.003 152.142 312.779 154.35 312.075 156.59C311.371 158.766 310.283 160.558 308.811 161.966C307.083 163.502 305.131 164.174 302.955 163.982C300.843 163.79 299.019 162.862 297.483 161.198C296.139 159.726 295.051 157.87 294.219 155.63C293.451 153.326 292.939 151.054 292.683 148.814C292.491 146.51 292.331 144.11 292.203 141.614C292.139 139.118 292.171 136.942 292.299 135.086C292.427 125.998 293.835 116.91 296.523 107.822C296.523 107.758 296.523 107.694 296.523 107.63C296.587 107.502 296.619 107.406 296.619 107.342C297.131 105.486 297.579 104.046 297.963 103.022C298.347 101.998 298.923 100.782 299.691 99.3735C300.523 97.9015 301.483 96.7175 302.571 95.8215C304.811 94.0295 307.179 93.5495 309.675 94.3815C312.171 95.2135 314.027 96.8776 315.243 99.3735C316.331 101.486 316.907 103.726 316.971 106.094C317.099 108.398 316.811 110.702 316.107 113.006C315.403 115.31 314.603 117.486 313.707 119.534C312.875 121.582 311.915 123.854 310.827 126.35C309.739 128.846 308.971 130.958 308.523 132.686C309.547 128.974 311.499 125.55 314.379 122.414C317.259 119.214 320.395 117.774 323.787 118.094Z" fill="#190933"/>
<path d="M352.839 130.701C354.567 134.669 355.367 139.757 355.239 145.965C355.047 153.837 353.095 159.245 349.383 162.189C348.039 163.149 346.567 163.725 344.967 163.917C343.431 164.173 341.959 163.917 340.551 163.149C337.927 161.549 336.263 158.285 335.559 153.357C335.111 149.837 335.175 145.453 335.751 140.205C336.007 137.837 336.231 135.981 336.423 134.637C336.679 133.293 337.159 131.597 337.863 129.549C338.567 127.437 339.495 125.869 340.647 124.845C342.503 122.989 344.519 122.605 346.695 123.693C349.191 124.909 351.239 127.245 352.839 130.701ZM344.775 118.797C341.895 119.629 339.431 119.181 337.383 117.453C335.399 115.661 334.471 113.421 334.599 110.733C334.663 109.133 335.175 107.661 336.135 106.317C337.287 104.525 338.951 103.277 341.127 102.573C343.367 101.805 345.447 101.869 347.367 102.765C349.351 103.661 350.599 105.293 351.111 107.661C351.623 109.965 351.271 112.237 350.055 114.477C348.839 116.653 347.079 118.093 344.775 118.797Z" fill="#190933"/>
</svg>
