<svg width="164" height="164" viewBox="0 0 164 164" fill="none" xmlns="http://www.w3.org/2000/svg">
<path d="M134.119 111.188C134.119 89.0971 111.119 73.5 82.4004 73.5C53.6816 73.5 31.6189 89.0971 31.6189 111.188C31.6189 133.28 53.6816 138.5 82.4004 138.5C111.119 138.5 134.119 133.28 134.119 111.188ZM142.4 111.188C142.4 118.202 140.521 124.368 136.752 129.477C133.044 134.502 127.917 137.955 122.292 140.339C111.303 144.997 96.9148 146.188 82.4004 146.188C67.886 146.188 53.4978 144.997 42.5088 140.339C36.8837 137.955 31.7563 134.502 28.0488 129.477C24.28 124.368 22.4004 118.202 22.4004 111.188C22.4004 83.3937 50.6686 60.6885 82.4004 60.6885C114.132 60.6885 142.4 83.3937 142.4 111.188Z" fill="#FFF4ED"/>
<path d="M84.6152 59.9385C84.6152 58.2816 83.2721 56.9385 81.6152 56.9385C79.9584 56.9385 78.6152 58.2816 78.6152 59.9385C78.6152 61.5953 79.9584 62.9385 81.6152 62.9385V70.9385C75.5401 70.9385 70.6152 66.0136 70.6152 59.9385C70.6152 53.8633 75.5401 48.9385 81.6152 48.9385C87.6904 48.9385 92.6152 53.8633 92.6152 59.9385C92.6152 66.0136 87.6904 70.9385 81.6152 70.9385V62.9385C83.2721 62.9385 84.6152 61.5953 84.6152 59.9385Z" fill="#FFF4ED"/>
<path d="M73.1187 132C73.1187 134.209 71.3278 136 69.1187 136C66.9095 136 65.1187 134.209 65.1187 132C65.1187 129.791 66.9095 128 69.1187 128C71.3278 128 73.1187 129.791 73.1187 132Z" fill="#FFF4ED"/>
<path d="M87.1187 133C87.1187 135.209 85.3278 137 83.1187 137C80.9095 137 79.1187 135.209 79.1187 133C79.1187 130.791 80.9095 129 83.1187 129C85.3278 129 87.1187 130.791 87.1187 133Z" fill="#FFF4ED"/>
<path d="M101.119 132C101.119 134.209 99.3278 136 97.1187 136C94.9095 136 93.1187 134.209 93.1187 132C93.1187 129.791 94.9095 128 97.1187 128C99.3278 128 101.119 129.791 101.119 132Z" fill="#FFF4ED"/>
<path d="M128.618 17.3558C132.506 16.8405 137.072 17.2171 141.242 19.3531L141.252 19.3588L141.636 19.5607L141.648 19.5663L141.697 19.5938L141.706 19.5985L141.716 19.6041L141.758 19.6278L142.127 19.8417C145.836 22.0343 149.63 25.8973 150.761 31.305L150.866 31.851L150.866 31.852L150.884 31.9581L150.886 31.9698L150.888 31.9825L150.903 32.0877L150.904 32.0925C151.526 36.4924 150.716 40.6174 149.622 43.9581L149.616 43.9817L149.608 44.0052L149.6 44.0269C147.998 48.804 145.559 53.049 143.032 56.7453L142.372 57.7088L142.367 57.703C139.905 61.2503 137.318 64.6484 134.766 67.9098L134.752 67.9267L134.739 67.9426L134.728 67.9555C132.224 71.1399 129.645 74.323 126.958 77.4563L122.62 82.5159L122.049 83.1819L121.315 82.7041L115.7 79.0467C114.227 78.0875 112.802 77.255 111.39 76.5674L111.389 76.5674L109.826 75.8051L108.719 75.389C106.96 74.7274 105.321 74.1975 103.736 73.8247L95.9946 72.0037L94.9445 71.7575L95.2734 70.7278L97.6356 63.3313C99.2191 58.3741 100.988 53.5207 102.795 48.7822L102.804 48.7576L102.815 48.733L102.82 48.7183C104.545 44.2549 106.402 39.5572 108.609 34.934L108.615 34.9203L108.624 34.9006C109.675 32.7247 110.892 30.5345 112.325 28.4052L112.357 28.348L112.39 28.3063C114.102 25.7866 116.501 22.9291 119.899 20.7677L119.921 20.7527L119.94 20.7396L119.96 20.7275L119.983 20.7134C121.766 19.5996 124.767 17.8616 128.567 17.3617L128.567 17.3626C128.575 17.3616 128.583 17.3601 128.589 17.3593C128.596 17.3584 128.601 17.3577 128.605 17.357L128.618 17.3568L128.618 17.3558ZM137.002 27.6791C134.892 26.536 132.311 26.2239 129.838 26.5575L129.831 26.5586C128.173 26.7712 126.624 27.5695 125.075 28.5375L124.724 28.7697L124.397 29.0013C122.778 30.1862 121.437 31.7484 120.281 33.4552C119.127 35.167 118.117 36.9774 117.217 38.8429L116.838 39.641L116.839 39.642C114.956 43.6706 113.317 47.8106 111.705 51.9832L111.706 51.9841L111.041 53.736C109.627 57.4911 108.271 61.2604 107.033 65.0611C108.519 65.4538 109.975 65.9263 111.403 66.4453L112.156 66.7244L112.165 66.7271L112.174 66.7309L112.176 66.7318C112.177 66.7323 112.179 66.733 112.181 66.7337C112.185 66.7354 112.191 66.738 112.199 66.7412C112.216 66.7477 112.24 66.757 112.27 66.7692C112.332 66.7938 112.421 66.8296 112.529 66.8728C112.744 66.9591 113.036 67.0773 113.343 67.2025C113.786 67.3833 114.3 67.5948 114.647 67.7488L114.929 67.8803L114.937 67.8841L114.944 67.8878L115.65 68.2567L116.256 68.559C117.629 69.2565 118.956 70.028 120.244 70.8421C121.986 68.7947 123.693 66.7177 125.372 64.6172L127.226 62.2788C129.966 58.7773 132.648 55.2493 135.134 51.6034L135.134 51.6024C137.244 48.5174 139.092 45.2786 140.334 41.8395L140.578 41.1386C141.409 38.5919 141.85 35.9484 141.492 33.3987C141.1 31.1706 139.493 29.216 137.415 27.9234L137.415 27.9224L137.002 27.6791ZM128.658 17.3512C128.653 17.3516 128.645 17.3534 128.635 17.3546C128.641 17.3539 128.647 17.3527 128.651 17.3523C128.656 17.3519 128.66 17.3513 128.663 17.3511L128.658 17.3512Z" fill="#FFF4ED" stroke="#FFF4ED" stroke-width="2"/>
<path d="M34.3259 17.3642C30.4297 16.9147 25.8711 17.3676 21.7395 19.574L21.7297 19.5798L21.3502 19.7882L21.3375 19.794L21.3375 19.795L21.2897 19.8223L21.2799 19.8271L21.2702 19.833L21.2292 19.8573L20.8633 20.0775C17.1952 22.3327 13.4703 26.2598 12.4369 31.6863L12.343 32.234L12.3421 32.2349L12.3266 32.3414L12.3227 32.3648L12.3092 32.4712L12.3082 32.4761C11.7655 36.8859 12.6509 40.9964 13.804 44.3182L13.8031 44.3192L13.8099 44.3427L13.8188 44.3651L13.8266 44.3876C15.5137 49.1369 18.0291 53.34 20.6224 56.993L21.2986 57.9452L21.3045 57.9394C23.8295 61.4446 26.4775 64.7981 29.0876 68.016L29.1013 68.0326L29.115 68.0483C31.6787 71.1944 34.3175 74.3381 37.064 77.4299L41.4925 82.4153L42.0756 83.0715L42.8014 82.5814L48.3483 78.8294L48.3493 78.8294C49.8045 77.8454 51.2147 76.989 52.6139 76.2775L54.1752 75.4831L55.2624 75.0542C57.0088 74.3628 58.6384 73.8043 60.2169 73.4047L67.9238 71.4539L68.9693 71.189L68.622 70.166L66.1273 62.8095C64.4533 57.8743 62.5939 53.0465 60.7007 48.3343L60.6977 48.3245L60.6869 48.3011L60.6811 48.2854C58.8764 43.8519 56.9351 39.1863 54.6453 34.6012L54.6434 34.5963L54.6395 34.5875L54.6297 34.568C53.5406 32.4111 52.2856 30.2422 50.8161 28.1382L50.7808 28.0785L50.7485 28.0404C48.992 25.5492 46.5413 22.7315 43.1043 20.627L43.0818 20.6124L43.0623 20.5996L43.0418 20.5879L43.03 20.581C41.2278 19.4977 38.1922 17.8046 34.3757 17.3682L34.3757 17.3692C34.3681 17.3683 34.361 17.3669 34.3552 17.3662C34.3479 17.3654 34.3425 17.3648 34.3376 17.3643L34.3259 17.3642ZM26.1301 27.8269C28.2186 26.6487 30.7929 26.2936 33.2717 26.5852L33.2776 26.5862C34.9317 26.7698 36.4878 27.5349 38.0471 28.4706L38.4234 28.7105L38.7558 28.9366C40.395 30.0938 41.7641 31.6325 42.9501 33.3191L42.9491 33.3201C44.1337 35.0123 45.1765 36.8051 46.1106 38.6551L46.5034 39.4468L46.5025 39.4477C48.458 43.4463 50.1703 47.561 51.8582 51.7081L52.5523 53.4416L52.5513 53.4426C54.0327 57.1735 55.4563 60.9195 56.762 64.6991C55.2837 65.1169 53.8371 65.6141 52.4186 66.1571L51.67 66.448L51.6456 66.4577L51.6212 66.4694L48.2408 68.0226L48.2233 68.0304L48.2057 68.0402C46.6306 68.8411 45.1182 69.7446 43.6581 70.7029C41.8809 68.6863 40.138 66.6395 38.4221 64.5688L36.525 62.2582C33.7226 58.8033 30.9773 55.3217 28.4267 51.7181L28.4257 51.7172C26.2612 48.6681 24.3557 45.4605 23.0515 42.0427L22.7955 41.3461C21.9196 38.8176 21.4321 36.1862 21.7416 33.6345C22.0891 31.3988 23.6569 29.415 25.7096 28.0851L26.1301 27.8269ZM34.2858 17.3593C34.2911 17.3597 34.2995 17.3612 34.3103 17.3623C34.3027 17.3616 34.2964 17.3606 34.2917 17.3603C34.2872 17.36 34.2834 17.3595 34.281 17.3593L34.2858 17.3593Z" fill="#FFF4ED" stroke="#FFF4ED" stroke-width="2"/>
<path d="M81.8789 83.7114C102.155 83.7114 115.863 86.5795 118.592 100.796C121.631 116.635 99.8945 125.711 81.8789 125.711C63.8633 125.711 42.1259 116.635 45.165 100.796C47.8933 86.5794 61.6028 83.7114 81.8789 83.7114ZM93.8955 108C93.2265 108.001 92.5737 108.177 92.0283 108.506C91.4829 108.835 91.0717 109.301 90.8516 109.837C90.6899 110.216 89.1121 113.541 83.1123 113.541C77.1128 113.541 75.5252 110.216 75.373 109.837C75.087 109.17 74.5063 108.623 73.7539 108.312C73.0016 108.001 72.1361 107.951 71.3408 108.171C70.5456 108.392 69.883 108.867 69.4922 109.495C69.1014 110.123 69.0135 110.855 69.2471 111.537C69.3605 111.842 72.1919 119 83.1123 119C94.0333 119 96.8708 111.841 96.9775 111.537C97.1246 111.128 97.1566 110.695 97.0713 110.274C96.9859 109.853 96.7859 109.454 96.4863 109.11C96.1866 108.766 95.7956 108.486 95.3457 108.293C94.8959 108.101 94.3992 108.001 93.8955 108Z" fill="#FFF4ED"/>
</svg>
